<svg viewBox="0 0 120 120" xmlns="http://www.w3.org/2000/svg"><path d="m77.35 53.78a15.28 15.28 0 0 0 -4.5-.65c-4.64 0-8.86 3.06-8.86 10.55 0 6.66 3.32 9.72 7.6 9.72a8.23 8.23 0 0 0 6-3l.48 2.6h5.29v-29.12l-6 1zm0 12.24a5.47 5.47 0 0 1 -3.89 2c-2 0-3.42-1.41-3.42-4.79 0-3.85 1.73-5.47 4-5.47a8.07 8.07 0 0 1 3.28.61zm18.65-38.02h-11.68l17.68-22.46-4-3.08-20 25.54h-54a12 12 0 0 0 -12 12v40a12 12 0 0 0 12 12h3.68l-17.68 22.46 4 3.08 20-25.54h62a12 12 0 0 0 12-12v-40a12 12 0 0 0 -12-12zm-72 59a7 7 0 0 1 -7-7v-40a7 7 0 0 1 7-7h50l-17.88 22.8-3.43-9h-7l-9.99 26.2h6.3l1.87-5.44h3l-15.26 19.44zm26.84-24.47h-5.24l3.27-9.11 2.82 8zm52.16 17.47a7 7 0 0 1 -7 7h-58l15.24-19.44h.57l2.08 5.69 6.48-1-4.17-11 22.19-28.25h15.61a7 7 0 0 1 7 7z" fill="#6fbce6"/></svg>