<?xml version="1.0" encoding="UTF-8"?>
<svg width="458px" height="103px" viewBox="0 0 458 103" version="1.1" xmlns="http://www.w3.org/2000/svg" xmlns:xlink="http://www.w3.org/1999/xlink">
    <!-- Generator: Sketch 49.3 (51167) - http://www.bohemiancoding.com/sketch -->
    <title>standard_logo_white</title>
    <desc>Created with Sketch.</desc>
    <defs></defs>
    <g id="Page-1" stroke="none" stroke-width="1" fill="none" fill-rule="evenodd">
        <g id="standard_logo_white" fill-rule="nonzero">
            <path d="M79.83,88.86 L89.76,88.86 L86.23,99.73 C85.788269,101.084595 84.5247995,102.000913 83.1,102 L72.79,102 C68.5945075,102.002342 64.6505199,99.9995654 62.1770926,96.610713 C59.7036654,93.2218607 58.9986644,88.8550397 60.28,84.86 L66.43,65.67 L29.43,65.67 L48.87,79.8 C50.7201644,81.3565288 52.0727421,83.4219045 52.76,85.74 C54.1864898,90.7613522 52.4361065,96.1468431 48.33,99.37 C46.1302765,101.091325 43.4131008,102.018196 40.62,102 L0.73,102.000263 L5.17,88.33 L37.31,88.33 L18.71,74.82 C16.4420949,73.1995527 14.7835646,70.8649335 14,68.19 C13.2994582,65.7345624 13.3517107,63.125421 14.15,60.7 C14.9218344,58.2670687 16.4143639,56.1259165 18.43,54.56 C20.6322461,52.8728888 23.3359364,51.9716587 26.11,52 L70.87,52 L75.94,36.3 L92.25,36.3 L87.18,52 L105.27,52 L105.13,52.43 C102.564354,60.3273764 95.2036787,65.6732538 86.9,65.67 L82.74,65.67 L76.74,84.58 C76.4224112,85.5719074 76.5947824,86.6556948 77.2044326,87.5001293 C77.8140827,88.3445638 78.7885454,88.8492712 79.83,88.86 Z M193.64,52 L170.2,52 C163.99,52 159.57,54.82 157.2,62.33 L145.54,98.19 C145.251716,99.0764176 145.40551,100.04729 145.953638,100.801214 C146.501765,101.555137 147.377882,102.000856 148.31,102 L159.5,102 C160.758706,102.002571 161.876386,101.195582 162.27,100 L172.38,68.9 C173.25,66.08 174.43,65.14 177.09,65.14 L186.09,65.14 C187.043145,65.1171556 187.947024,65.5626669 188.509456,66.3325215 C189.071889,67.1023762 189.221527,68.0989132 188.91,69 L179.41,98.24 C179.121716,99.1264176 179.27551,100.09729 179.823638,100.851214 C180.371765,101.605137 181.247882,102.050856 182.18,102.05 L193.42,102.05 C194.678706,102.052571 195.796386,101.245582 196.19,100.05 L206.14,69.24 C207.460347,65.2339704 206.775711,60.8375267 204.299747,57.4226777 C201.823783,54.0078287 197.857997,51.9904092 193.64,52 Z M273.33,36 L255.33,91.64 C253.2,98.21 249.28,101.96 242.19,101.96 L221.37,101.96 C216.114327,101.961954 211.175699,99.4464311 208.086932,95.1941827 C204.998166,90.9419342 204.133015,85.4675011 205.76,80.47 L209.57,68.75 C212.837382,58.7542516 222.163787,51.9945253 232.68,52 L250.81,52 L256,36 L273.33,36 Z M246.54,65.1 L236.78,65.1 C231.60551,65.1139333 227.022703,68.4432197 225.41,73.36 L222.48,82.36 C221.989467,83.8591882 222.247504,85.5026734 223.173873,86.7793994 C224.100241,88.0561253 225.582601,88.8112646 227.16,88.81 L234.46,88.81 C238,88.81 239.18,87.87 240.46,84.12 L246.54,65.1 Z M421.24,36 L403.24,91.64 C401.11,98.21 397.24,101.96 390.1,101.96 L369.29,101.96 C364.034217,101.960747 359.095674,99.4455011 356.005548,95.1941041 C352.915421,90.9427071 352.047173,85.468969 353.67,80.47 L357.48,68.75 C360.747382,58.7542516 370.073787,51.9945253 380.59,52 L398.73,52 L403.87,36 L421.24,36 Z M394.45,65.1 L384.69,65.1 C379.51551,65.1139333 374.932703,68.4432197 373.32,73.36 L370.39,82.36 C369.904168,83.8589822 370.164151,85.4998911 371.08955,86.7752804 C372.014948,88.0506696 373.494256,88.8068593 375.07,88.81 L382.37,88.81 C385.91,88.81 387.09,87.87 388.37,84.12 L394.45,65.1 Z M362,55.49 L363.11,51.9999991 L347.73,52 C336.335874,51.997092 326.238887,59.3396206 322.73,70.18 L312.44,102 L329.8,102 L339.63,71.76 C340.965038,67.7191017 344.744283,64.99256 349,65 C354.942226,65.0001223 360.200778,61.1532896 362,55.49 Z M151.05,68.9 L143.29,92.9 C141.5369,98.3211644 136.487576,101.993033 130.79,101.99 L101.34,101.99 C98.1952375,101.979666 95.244436,100.468354 93.3982934,97.9224953 C91.5521507,95.3766369 91.0326042,92.1022873 92,89.11 L94.24,82.21 C96.4275001,75.4318456 102.737604,70.8386397 109.86,70.84 L133.07,70.84 L134.43,66.47 C134.553994,66.0723925 134.481529,65.6395162 134.234803,65.3039684 C133.988077,64.9684206 133.596493,64.7701907 133.18,64.77 L116.85,64.77 C113.727639,64.768637 110.794401,63.2734655 108.958858,60.7476153 C107.123315,58.2217651 106.607058,54.9701654 107.57,52 L139.66,52 C149.05,52 152.82,57.35 151.88,65 C151.730719,66.3238819 151.452738,67.6300589 151.05,68.9 Z M129.31,82.48 L114.71,82.48 C112.736418,82.3464529 110.930557,83.5890177 110.35,85.48 C110.184155,86.0026017 110.060426,86.5376451 109.98,87.08 C109.81,88.48 110.44,89.8 112.12,89.8 L124,89.8 C126.66,89.8 127.09,88.86 128.06,86.04 L129.31,82.48 Z M319.21,68.9 L311.45,92.9 C309.700762,98.3037528 304.679761,101.973721 299,102 L269.5,102 C266.351709,101.996042 263.394989,100.487378 261.544192,97.9405559 C259.693396,95.3937337 259.171538,92.1156353 260.14,89.12 L262.37,82.22 C264.555112,75.4343801 270.871232,70.8356952 278,70.84 L301.2,70.84 L302.57,66.47 C302.694532,66.0707062 302.620907,65.63595 302.371851,65.299922 C302.122795,64.9638941 301.728252,64.7669953 301.31,64.77 L285,64.77 C281.877639,64.768637 278.944401,63.2734655 277.108858,60.7476153 C275.273315,58.2217651 274.757058,54.9701654 275.72,52 L307.82,52 C317.21,52 320.98,57.35 320.03,65 C319.884355,66.3236066 319.609717,67.6298136 319.21,68.9 Z M297.47,82.48 L282.86,82.48 C280.888998,82.3475062 279.086567,83.5905625 278.51,85.48 C278.340933,86.0023644 278.213862,86.5373993 278.13,87.08 C277.96,88.48 278.6,89.8 280.28,89.8 L292.18,89.8 C294.83,89.8 295.27,88.86 296.23,86.04 L297.47,82.48 Z" id="Shape" fill="#F0F0F0"></path>
            <polygon id="Shape" fill="#6FBCE6" points="421.24 19.15 405.17 30.82 425 30.82 431.14 49.71 437.28 30.82 457.14 30.82 441.1 19.15 447.24 0.26 431.17 11.94 415.1 0.26"></polygon>
        </g>
    </g>
</svg>